<mxfile host="app.diagrams.net" agent="Mozilla/5.0 (Windows NT 10.0; Win64; x64) AppleWebKit/537.36 (KHTML, like Gecko) Chrome/134.0.0.0 Safari/537.36 OPR/119.0.0.0" version="27.1.4">
  <diagram name="Page-1" id="7DitlBmKy_KmNRBPjm2E">
    <mxGraphModel grid="0" page="0" gridSize="10" guides="1" tooltips="1" connect="1" arrows="1" fold="1" pageScale="1" pageWidth="850" pageHeight="1100" math="0" shadow="0">
      <root>
        <mxCell id="0" />
        <mxCell id="1" parent="0" />
        <mxCell id="FBGtjrxFYeqwoGElC6IA-1" value="ทบทวนสัญลักษณ์" style="swimlane;fontFamily=Sarabun;fontSource=https%3A%2F%2Ffonts.googleapis.com%2Fcss%3Ffamily%3DSarabun;" vertex="1" parent="1">
          <mxGeometry x="-720" y="20" width="640" height="290" as="geometry" />
        </mxCell>
        <mxCell id="FBGtjrxFYeqwoGElC6IA-2" value="&lt;font data-font-src=&quot;https://fonts.googleapis.com/css?family=Sarabun&quot; face=&quot;Sarabun&quot;&gt;เริ่มต้น&lt;/font&gt;" style="ellipse;whiteSpace=wrap;html=1;" vertex="1" parent="FBGtjrxFYeqwoGElC6IA-1">
          <mxGeometry x="20" y="40" width="130" height="30" as="geometry" />
        </mxCell>
        <mxCell id="FBGtjrxFYeqwoGElC6IA-3" value="" style="endArrow=classic;html=1;rounded=0;" edge="1" parent="FBGtjrxFYeqwoGElC6IA-1">
          <mxGeometry width="50" height="50" relative="1" as="geometry">
            <mxPoint x="84.5" y="70" as="sourcePoint" />
            <mxPoint x="84.5" y="120" as="targetPoint" />
          </mxGeometry>
        </mxCell>
        <mxCell id="FBGtjrxFYeqwoGElC6IA-4" value="&lt;font face=&quot;Sarabun&quot;&gt;สิ้นสุด&lt;/font&gt;" style="ellipse;whiteSpace=wrap;html=1;" vertex="1" parent="FBGtjrxFYeqwoGElC6IA-1">
          <mxGeometry x="150" y="90" width="130" height="30" as="geometry" />
        </mxCell>
        <mxCell id="FBGtjrxFYeqwoGElC6IA-5" value="" style="endArrow=classic;html=1;rounded=0;" edge="1" parent="FBGtjrxFYeqwoGElC6IA-1">
          <mxGeometry width="50" height="50" relative="1" as="geometry">
            <mxPoint x="214.5" y="40" as="sourcePoint" />
            <mxPoint x="214.5" y="90" as="targetPoint" />
          </mxGeometry>
        </mxCell>
        <mxCell id="FBGtjrxFYeqwoGElC6IA-6" value="กระบวนการ" style="rounded=0;whiteSpace=wrap;html=1;fontFamily=Sarabun;fontSource=https%3A%2F%2Ffonts.googleapis.com%2Fcss%3Ffamily%3DSarabun;" vertex="1" parent="FBGtjrxFYeqwoGElC6IA-1">
          <mxGeometry x="320" y="70" width="120" height="30" as="geometry" />
        </mxCell>
        <mxCell id="FBGtjrxFYeqwoGElC6IA-7" value="" style="endArrow=classic;html=1;rounded=0;" edge="1" parent="FBGtjrxFYeqwoGElC6IA-1">
          <mxGeometry width="50" height="50" relative="1" as="geometry">
            <mxPoint x="379" y="40" as="sourcePoint" />
            <mxPoint x="379.5" y="70" as="targetPoint" />
          </mxGeometry>
        </mxCell>
        <mxCell id="FBGtjrxFYeqwoGElC6IA-8" value="" style="endArrow=classic;html=1;rounded=0;" edge="1" parent="FBGtjrxFYeqwoGElC6IA-1">
          <mxGeometry width="50" height="50" relative="1" as="geometry">
            <mxPoint x="379.75" y="100" as="sourcePoint" />
            <mxPoint x="380.25" y="130" as="targetPoint" />
          </mxGeometry>
        </mxCell>
        <mxCell id="FBGtjrxFYeqwoGElC6IA-9" value="ประโยคเงื่อนไข" style="rhombus;whiteSpace=wrap;html=1;fontFamily=Sarabun;fontSource=https%3A%2F%2Ffonts.googleapis.com%2Fcss%3Ffamily%3DSarabun;" vertex="1" parent="FBGtjrxFYeqwoGElC6IA-1">
          <mxGeometry x="490" y="60" width="100" height="60" as="geometry" />
        </mxCell>
        <mxCell id="FBGtjrxFYeqwoGElC6IA-10" value="" style="endArrow=classic;html=1;rounded=0;" edge="1" parent="FBGtjrxFYeqwoGElC6IA-1">
          <mxGeometry width="50" height="50" relative="1" as="geometry">
            <mxPoint x="539.71" y="30" as="sourcePoint" />
            <mxPoint x="540.21" y="60" as="targetPoint" />
          </mxGeometry>
        </mxCell>
        <mxCell id="FBGtjrxFYeqwoGElC6IA-11" value="" style="endArrow=classic;html=1;rounded=0;" edge="1" parent="FBGtjrxFYeqwoGElC6IA-1">
          <mxGeometry width="50" height="50" relative="1" as="geometry">
            <mxPoint x="539.71" y="120" as="sourcePoint" />
            <mxPoint x="540" y="175" as="targetPoint" />
          </mxGeometry>
        </mxCell>
        <mxCell id="FBGtjrxFYeqwoGElC6IA-12" value="จริง" style="edgeLabel;html=1;align=center;verticalAlign=middle;resizable=0;points=[];fontFamily=Sarabun;fontSource=https%3A%2F%2Ffonts.googleapis.com%2Fcss%3Ffamily%3DSarabun;" vertex="1" connectable="0" parent="FBGtjrxFYeqwoGElC6IA-11">
          <mxGeometry x="-0.4142" y="-1" relative="1" as="geometry">
            <mxPoint as="offset" />
          </mxGeometry>
        </mxCell>
        <mxCell id="FBGtjrxFYeqwoGElC6IA-13" value="" style="endArrow=classic;html=1;rounded=0;exitX=1;exitY=0.5;exitDx=0;exitDy=0;" edge="1" parent="FBGtjrxFYeqwoGElC6IA-1" source="FBGtjrxFYeqwoGElC6IA-9">
          <mxGeometry width="50" height="50" relative="1" as="geometry">
            <mxPoint x="620" y="95" as="sourcePoint" />
            <mxPoint x="610" y="175" as="targetPoint" />
            <Array as="points">
              <mxPoint x="610" y="90" />
            </Array>
          </mxGeometry>
        </mxCell>
        <mxCell id="FBGtjrxFYeqwoGElC6IA-14" value="&lt;font data-font-src=&quot;https://fonts.googleapis.com/css?family=Sarabun&quot; face=&quot;Sarabun&quot;&gt;เท็จ&lt;/font&gt;" style="edgeLabel;html=1;align=center;verticalAlign=middle;resizable=0;points=[];" vertex="1" connectable="0" parent="FBGtjrxFYeqwoGElC6IA-13">
          <mxGeometry x="-0.0019" y="-2" relative="1" as="geometry">
            <mxPoint as="offset" />
          </mxGeometry>
        </mxCell>
        <mxCell id="FBGtjrxFYeqwoGElC6IA-15" value="&lt;font data-font-src=&quot;https://fonts.googleapis.com/css?family=Sarabun&quot; face=&quot;Sarabun&quot;&gt;ฟังก์ชัน/โมดูล&lt;/font&gt;" style="shape=process;whiteSpace=wrap;html=1;backgroundOutline=1;" vertex="1" parent="FBGtjrxFYeqwoGElC6IA-1">
          <mxGeometry x="25" y="180" width="120" height="30" as="geometry" />
        </mxCell>
        <mxCell id="FBGtjrxFYeqwoGElC6IA-16" value="" style="endArrow=classic;html=1;rounded=0;" edge="1" parent="FBGtjrxFYeqwoGElC6IA-1">
          <mxGeometry width="50" height="50" relative="1" as="geometry">
            <mxPoint x="84.70999999999998" y="150" as="sourcePoint" />
            <mxPoint x="85.20999999999998" y="180" as="targetPoint" />
          </mxGeometry>
        </mxCell>
        <mxCell id="FBGtjrxFYeqwoGElC6IA-17" value="" style="endArrow=classic;html=1;rounded=0;" edge="1" parent="FBGtjrxFYeqwoGElC6IA-1">
          <mxGeometry width="50" height="50" relative="1" as="geometry">
            <mxPoint x="84.70999999999998" y="210" as="sourcePoint" />
            <mxPoint x="85.20999999999998" y="240" as="targetPoint" />
          </mxGeometry>
        </mxCell>
        <mxCell id="FBGtjrxFYeqwoGElC6IA-18" value="" style="strokeWidth=2;html=1;shape=mxgraph.flowchart.start_2;whiteSpace=wrap;" vertex="1" parent="FBGtjrxFYeqwoGElC6IA-1">
          <mxGeometry x="205" y="185" width="20" height="20" as="geometry" />
        </mxCell>
        <mxCell id="FBGtjrxFYeqwoGElC6IA-19" value="" style="endArrow=classic;html=1;rounded=0;" edge="1" parent="FBGtjrxFYeqwoGElC6IA-1">
          <mxGeometry width="50" height="50" relative="1" as="geometry">
            <mxPoint x="214.70999999999998" y="155" as="sourcePoint" />
            <mxPoint x="215.20999999999998" y="185" as="targetPoint" />
          </mxGeometry>
        </mxCell>
        <mxCell id="FBGtjrxFYeqwoGElC6IA-20" value="" style="endArrow=classic;html=1;rounded=0;entryX=0;entryY=0.5;entryDx=0;entryDy=0;entryPerimeter=0;" edge="1" parent="FBGtjrxFYeqwoGElC6IA-1" target="FBGtjrxFYeqwoGElC6IA-18">
          <mxGeometry width="50" height="50" relative="1" as="geometry">
            <mxPoint x="189.99999999999997" y="155" as="sourcePoint" />
            <mxPoint x="190.49999999999997" y="185" as="targetPoint" />
            <Array as="points">
              <mxPoint x="190" y="180" />
            </Array>
          </mxGeometry>
        </mxCell>
        <mxCell id="FBGtjrxFYeqwoGElC6IA-21" value="" style="endArrow=classic;html=1;rounded=0;entryX=1;entryY=0.5;entryDx=0;entryDy=0;entryPerimeter=0;" edge="1" parent="FBGtjrxFYeqwoGElC6IA-1" target="FBGtjrxFYeqwoGElC6IA-18">
          <mxGeometry width="50" height="50" relative="1" as="geometry">
            <mxPoint x="239.99999999999997" y="155" as="sourcePoint" />
            <mxPoint x="240.49999999999997" y="185" as="targetPoint" />
            <Array as="points">
              <mxPoint x="240" y="180" />
            </Array>
          </mxGeometry>
        </mxCell>
        <mxCell id="FBGtjrxFYeqwoGElC6IA-22" value="" style="endArrow=classic;html=1;rounded=0;" edge="1" parent="FBGtjrxFYeqwoGElC6IA-1">
          <mxGeometry width="50" height="50" relative="1" as="geometry">
            <mxPoint x="214.70999999999998" y="205" as="sourcePoint" />
            <mxPoint x="215.20999999999998" y="235" as="targetPoint" />
          </mxGeometry>
        </mxCell>
        <mxCell id="FBGtjrxFYeqwoGElC6IA-23" value="&lt;font data-font-src=&quot;https://fonts.googleapis.com/css?family=Sarabun&quot; face=&quot;Sarabun&quot;&gt;ตัวเชื่อม&lt;/font&gt;" style="text;html=1;align=center;verticalAlign=middle;resizable=0;points=[];autosize=1;strokeColor=none;fillColor=none;" vertex="1" parent="FBGtjrxFYeqwoGElC6IA-1">
          <mxGeometry x="220" y="190" width="60" height="30" as="geometry" />
        </mxCell>
        <mxCell id="FBGtjrxFYeqwoGElC6IA-24" value="" style="endArrow=classic;html=1;rounded=0;" edge="1" parent="FBGtjrxFYeqwoGElC6IA-1">
          <mxGeometry width="50" height="50" relative="1" as="geometry">
            <mxPoint x="353.71" y="165" as="sourcePoint" />
            <mxPoint x="354.21" y="195" as="targetPoint" />
          </mxGeometry>
        </mxCell>
        <mxCell id="FBGtjrxFYeqwoGElC6IA-25" value="" style="verticalLabelPosition=bottom;verticalAlign=top;html=1;shape=offPageConnector;rounded=0;size=0.5;" vertex="1" parent="FBGtjrxFYeqwoGElC6IA-1">
          <mxGeometry x="339" y="195" width="30" height="30" as="geometry" />
        </mxCell>
        <mxCell id="FBGtjrxFYeqwoGElC6IA-26" value="" style="endArrow=classic;html=1;rounded=0;" edge="1" parent="FBGtjrxFYeqwoGElC6IA-1">
          <mxGeometry width="50" height="50" relative="1" as="geometry">
            <mxPoint x="405.71" y="195" as="sourcePoint" />
            <mxPoint x="406.21" y="225" as="targetPoint" />
          </mxGeometry>
        </mxCell>
        <mxCell id="FBGtjrxFYeqwoGElC6IA-27" value="" style="verticalLabelPosition=bottom;verticalAlign=top;html=1;shape=offPageConnector;rounded=0;size=0.5;" vertex="1" parent="FBGtjrxFYeqwoGElC6IA-1">
          <mxGeometry x="391" y="165" width="30" height="30" as="geometry" />
        </mxCell>
        <mxCell id="FBGtjrxFYeqwoGElC6IA-28" value="หน้าต่อไป" style="text;html=1;align=center;verticalAlign=middle;resizable=0;points=[];autosize=1;strokeColor=none;fillColor=none;fontFamily=Sarabun;fontSource=https%3A%2F%2Ffonts.googleapis.com%2Fcss%3Ffamily%3DSarabun;" vertex="1" parent="FBGtjrxFYeqwoGElC6IA-1">
          <mxGeometry x="345" y="220" width="70" height="30" as="geometry" />
        </mxCell>
        <mxCell id="FBGtjrxFYeqwoGElC6IA-29" value="ก" style="text;html=1;align=center;verticalAlign=middle;resizable=0;points=[];autosize=1;strokeColor=none;fillColor=none;fontFamily=Sarabun;fontSource=https%3A%2F%2Ffonts.googleapis.com%2Fcss%3Ffamily%3DSarabun;" vertex="1" parent="FBGtjrxFYeqwoGElC6IA-1">
          <mxGeometry x="339" y="190" width="30" height="30" as="geometry" />
        </mxCell>
        <mxCell id="FBGtjrxFYeqwoGElC6IA-30" value="ก" style="text;html=1;align=center;verticalAlign=middle;resizable=0;points=[];autosize=1;strokeColor=none;fillColor=none;fontFamily=Sarabun;fontSource=https%3A%2F%2Ffonts.googleapis.com%2Fcss%3Ffamily%3DSarabun;" vertex="1" parent="FBGtjrxFYeqwoGElC6IA-1">
          <mxGeometry x="391" y="160" width="30" height="30" as="geometry" />
        </mxCell>
        <mxCell id="FBGtjrxFYeqwoGElC6IA-31" value="แสดงผล/รับค่า" style="shape=parallelogram;perimeter=parallelogramPerimeter;whiteSpace=wrap;html=1;fixedSize=1;fontFamily=Sarabun;fontSource=https%3A%2F%2Ffonts.googleapis.com%2Fcss%3Ffamily%3DSarabun;" vertex="1" parent="FBGtjrxFYeqwoGElC6IA-1">
          <mxGeometry x="450" y="210" width="120" height="30" as="geometry" />
        </mxCell>
        <mxCell id="FBGtjrxFYeqwoGElC6IA-32" value="" style="endArrow=classic;html=1;rounded=0;" edge="1" parent="FBGtjrxFYeqwoGElC6IA-1">
          <mxGeometry width="50" height="50" relative="1" as="geometry">
            <mxPoint x="509.71" y="180" as="sourcePoint" />
            <mxPoint x="510.21" y="210" as="targetPoint" />
          </mxGeometry>
        </mxCell>
        <mxCell id="FBGtjrxFYeqwoGElC6IA-33" value="" style="endArrow=classic;html=1;rounded=0;" edge="1" parent="FBGtjrxFYeqwoGElC6IA-1">
          <mxGeometry width="50" height="50" relative="1" as="geometry">
            <mxPoint x="509.71" y="240" as="sourcePoint" />
            <mxPoint x="510.21" y="270" as="targetPoint" />
          </mxGeometry>
        </mxCell>
        <mxCell id="FBGtjrxFYeqwoGElC6IA-34" value="แก้ไขโจทย์ปัญหา" style="swimlane;fontFamily=Sarabun;fontSource=https%3A%2F%2Ffonts.googleapis.com%2Fcss%3Ffamily%3DSarabun;" vertex="1" parent="1">
          <mxGeometry x="-737" y="623" width="840" height="820" as="geometry" />
        </mxCell>
        <mxCell id="FBGtjrxFYeqwoGElC6IA-40" value="" style="edgeStyle=none;curved=1;rounded=0;orthogonalLoop=1;jettySize=auto;html=1;fontSize=12;startSize=8;endSize=8;" edge="1" parent="FBGtjrxFYeqwoGElC6IA-34" source="FBGtjrxFYeqwoGElC6IA-35" target="FBGtjrxFYeqwoGElC6IA-39">
          <mxGeometry relative="1" as="geometry" />
        </mxCell>
        <mxCell id="FBGtjrxFYeqwoGElC6IA-35" value="&lt;font data-font-src=&quot;https://fonts.googleapis.com/css?family=Sarabun&quot; face=&quot;Sarabun&quot;&gt;เริ่มต้น&lt;/font&gt;" style="ellipse;whiteSpace=wrap;html=1;" vertex="1" parent="FBGtjrxFYeqwoGElC6IA-34">
          <mxGeometry x="94" y="40" width="130" height="30" as="geometry" />
        </mxCell>
        <mxCell id="FBGtjrxFYeqwoGElC6IA-36" value="&lt;font face=&quot;Sarabun&quot;&gt;สิ้นสุด&lt;/font&gt;" style="ellipse;whiteSpace=wrap;html=1;" vertex="1" parent="FBGtjrxFYeqwoGElC6IA-34">
          <mxGeometry x="476" y="502" width="130" height="30" as="geometry" />
        </mxCell>
        <mxCell id="FBGtjrxFYeqwoGElC6IA-42" value="" style="edgeStyle=none;curved=1;rounded=0;orthogonalLoop=1;jettySize=auto;html=1;fontSize=12;startSize=8;endSize=8;" edge="1" parent="FBGtjrxFYeqwoGElC6IA-34" source="FBGtjrxFYeqwoGElC6IA-39" target="FBGtjrxFYeqwoGElC6IA-41">
          <mxGeometry relative="1" as="geometry" />
        </mxCell>
        <mxCell id="FBGtjrxFYeqwoGElC6IA-39" value="&lt;span class=&quot;selected&quot;&gt;ลูกค้าเข้าใช้เครื่อง&lt;/span&gt;" style="rounded=1;whiteSpace=wrap;html=1;" vertex="1" parent="FBGtjrxFYeqwoGElC6IA-34">
          <mxGeometry x="99" y="110" width="121" height="29" as="geometry" />
        </mxCell>
        <mxCell id="FBGtjrxFYeqwoGElC6IA-44" value="" style="edgeStyle=none;curved=1;rounded=0;orthogonalLoop=1;jettySize=auto;html=1;fontSize=12;startSize=8;endSize=8;" edge="1" parent="FBGtjrxFYeqwoGElC6IA-34" source="FBGtjrxFYeqwoGElC6IA-41" target="FBGtjrxFYeqwoGElC6IA-43">
          <mxGeometry relative="1" as="geometry" />
        </mxCell>
        <mxCell id="FBGtjrxFYeqwoGElC6IA-41" value="แสดงรายการสินค้าและราคา" style="whiteSpace=wrap;html=1;rounded=1;" vertex="1" parent="FBGtjrxFYeqwoGElC6IA-34">
          <mxGeometry x="99.5" y="176.5" width="120" height="60" as="geometry" />
        </mxCell>
        <mxCell id="FBGtjrxFYeqwoGElC6IA-46" value="" style="edgeStyle=none;curved=1;rounded=0;orthogonalLoop=1;jettySize=auto;html=1;fontSize=12;startSize=8;endSize=8;" edge="1" parent="FBGtjrxFYeqwoGElC6IA-34" source="FBGtjrxFYeqwoGElC6IA-43" target="FBGtjrxFYeqwoGElC6IA-45">
          <mxGeometry relative="1" as="geometry" />
        </mxCell>
        <mxCell id="FBGtjrxFYeqwoGElC6IA-43" value="ลูกค้าเลือกสินค้า" style="whiteSpace=wrap;html=1;rounded=1;" vertex="1" parent="FBGtjrxFYeqwoGElC6IA-34">
          <mxGeometry x="99.5" y="268.5" width="120" height="60" as="geometry" />
        </mxCell>
        <mxCell id="FBGtjrxFYeqwoGElC6IA-50" value="" style="edgeStyle=none;curved=1;rounded=0;orthogonalLoop=1;jettySize=auto;html=1;fontSize=12;startSize=8;endSize=8;" edge="1" parent="FBGtjrxFYeqwoGElC6IA-34" source="FBGtjrxFYeqwoGElC6IA-45" target="FBGtjrxFYeqwoGElC6IA-49">
          <mxGeometry relative="1" as="geometry" />
        </mxCell>
        <mxCell id="FBGtjrxFYeqwoGElC6IA-45" value="รวมยอด" style="whiteSpace=wrap;html=1;rounded=1;" vertex="1" parent="FBGtjrxFYeqwoGElC6IA-34">
          <mxGeometry x="99.5" y="361.5" width="119.5" height="29.5" as="geometry" />
        </mxCell>
        <mxCell id="FBGtjrxFYeqwoGElC6IA-51" style="edgeStyle=orthogonalEdgeStyle;rounded=0;orthogonalLoop=1;jettySize=auto;html=1;fontSize=12;startSize=8;endSize=8;entryX=1;entryY=0.5;entryDx=0;entryDy=0;exitX=0.95;exitY=0.478;exitDx=0;exitDy=0;exitPerimeter=0;" edge="1" parent="FBGtjrxFYeqwoGElC6IA-34" source="FBGtjrxFYeqwoGElC6IA-49" target="FBGtjrxFYeqwoGElC6IA-43">
          <mxGeometry relative="1" as="geometry">
            <mxPoint x="226" y="285" as="targetPoint" />
            <Array as="points">
              <mxPoint x="195" y="459" />
              <mxPoint x="300" y="459" />
              <mxPoint x="300" y="299" />
            </Array>
          </mxGeometry>
        </mxCell>
        <mxCell id="FBGtjrxFYeqwoGElC6IA-79" value="" style="edgeStyle=none;curved=1;rounded=0;orthogonalLoop=1;jettySize=auto;html=1;fontSize=12;startSize=8;endSize=8;" edge="1" parent="FBGtjrxFYeqwoGElC6IA-34" source="FBGtjrxFYeqwoGElC6IA-49" target="FBGtjrxFYeqwoGElC6IA-54">
          <mxGeometry relative="1" as="geometry" />
        </mxCell>
        <mxCell id="FBGtjrxFYeqwoGElC6IA-49" value="ต้องการเลือกเพิ่ม?" style="rhombus;whiteSpace=wrap;html=1;rounded=1;" vertex="1" parent="FBGtjrxFYeqwoGElC6IA-34">
          <mxGeometry x="119.25" y="418.75" width="80" height="80" as="geometry" />
        </mxCell>
        <mxCell id="FBGtjrxFYeqwoGElC6IA-54" value="แสดงยอดรวมและสินค้าที่เลือก" style="whiteSpace=wrap;html=1;rounded=1;" vertex="1" parent="FBGtjrxFYeqwoGElC6IA-34">
          <mxGeometry x="99.25" y="542" width="120" height="60" as="geometry" />
        </mxCell>
        <mxCell id="FBGtjrxFYeqwoGElC6IA-73" value="" style="edgeStyle=none;curved=1;rounded=0;orthogonalLoop=1;jettySize=auto;html=1;fontSize=12;startSize=8;endSize=8;" edge="1" parent="FBGtjrxFYeqwoGElC6IA-34" source="FBGtjrxFYeqwoGElC6IA-70" target="FBGtjrxFYeqwoGElC6IA-72">
          <mxGeometry relative="1" as="geometry" />
        </mxCell>
        <mxCell id="FBGtjrxFYeqwoGElC6IA-70" value="ใส่เงิน" style="whiteSpace=wrap;html=1;" vertex="1" parent="FBGtjrxFYeqwoGElC6IA-34">
          <mxGeometry x="481" y="212" width="120" height="60" as="geometry" />
        </mxCell>
        <mxCell id="FBGtjrxFYeqwoGElC6IA-78" value="" style="edgeStyle=none;curved=1;rounded=0;orthogonalLoop=1;jettySize=auto;html=1;fontSize=12;startSize=8;endSize=8;" edge="1" parent="FBGtjrxFYeqwoGElC6IA-34" source="FBGtjrxFYeqwoGElC6IA-72" target="FBGtjrxFYeqwoGElC6IA-77">
          <mxGeometry relative="1" as="geometry" />
        </mxCell>
        <mxCell id="FBGtjrxFYeqwoGElC6IA-72" value="จ่ายสินค้า" style="whiteSpace=wrap;html=1;" vertex="1" parent="FBGtjrxFYeqwoGElC6IA-34">
          <mxGeometry x="481" y="301" width="120" height="60" as="geometry" />
        </mxCell>
        <mxCell id="FBGtjrxFYeqwoGElC6IA-76" value="" style="edgeStyle=none;curved=1;rounded=0;orthogonalLoop=1;jettySize=auto;html=1;fontSize=12;startSize=8;endSize=8;" edge="1" parent="FBGtjrxFYeqwoGElC6IA-34" source="FBGtjrxFYeqwoGElC6IA-74" target="FBGtjrxFYeqwoGElC6IA-70">
          <mxGeometry relative="1" as="geometry" />
        </mxCell>
        <mxCell id="FBGtjrxFYeqwoGElC6IA-74" value="ชำระเงิน" style="whiteSpace=wrap;html=1;" vertex="1" parent="FBGtjrxFYeqwoGElC6IA-34">
          <mxGeometry x="481" y="113" width="120" height="60" as="geometry" />
        </mxCell>
        <mxCell id="FBGtjrxFYeqwoGElC6IA-81" style="edgeStyle=none;curved=1;rounded=0;orthogonalLoop=1;jettySize=auto;html=1;entryX=0.5;entryY=0;entryDx=0;entryDy=0;fontSize=12;startSize=8;endSize=8;" edge="1" parent="FBGtjrxFYeqwoGElC6IA-34" source="FBGtjrxFYeqwoGElC6IA-77" target="FBGtjrxFYeqwoGElC6IA-36">
          <mxGeometry relative="1" as="geometry" />
        </mxCell>
        <mxCell id="FBGtjrxFYeqwoGElC6IA-77" value="สรุปยอดเงินในตู้ว่าเหลือเท่าไหร่" style="whiteSpace=wrap;html=1;" vertex="1" parent="FBGtjrxFYeqwoGElC6IA-34">
          <mxGeometry x="481" y="392" width="120" height="60" as="geometry" />
        </mxCell>
        <mxCell id="FBGtjrxFYeqwoGElC6IA-80" value="ไม่" style="text;html=1;align=center;verticalAlign=middle;whiteSpace=wrap;rounded=0;" vertex="1" parent="FBGtjrxFYeqwoGElC6IA-34">
          <mxGeometry x="139.25" y="498.75" width="60" height="30" as="geometry" />
        </mxCell>
        <mxCell id="FBGtjrxFYeqwoGElC6IA-37" value="&lt;font data-font-src=&quot;https://fonts.googleapis.com/css?family=Sarabun&quot; face=&quot;Sarabun&quot;&gt;โจทย์ปัญหา&lt;/font&gt;" style="swimlane;whiteSpace=wrap;html=1;" vertex="1" parent="1">
          <mxGeometry x="-720" y="320" width="640" height="240" as="geometry" />
        </mxCell>
        <mxCell id="FBGtjrxFYeqwoGElC6IA-38" value="&lt;font data-font-src=&quot;https://fonts.googleapis.com/css?family=Sarabun&quot; face=&quot;Sarabun&quot; style=&quot;font-size: 14px;&quot;&gt;จงเขียน Flowchart เพื่อแสดงขั้นตอนการทำงาน ของเครื่องขายน้ำอัตโนมัติที่ชื่อว่า &quot;ตะพาบลอย&quot;&lt;br&gt;โดยจะต้องมีสินค้าดังนี้&lt;br&gt;&lt;u&gt;ประเภทน้ำ&lt;span style=&quot;white-space: pre;&quot;&gt;&#x9;&lt;/span&gt;&lt;span style=&quot;white-space: pre;&quot;&gt;&#x9;&lt;/span&gt;&lt;span style=&quot;white-space: pre;&quot;&gt;&#x9;&lt;/span&gt;&lt;span style=&quot;white-space: pre;&quot;&gt;&#x9;&lt;/span&gt;&lt;span style=&quot;white-space: pre;&quot;&gt;&#x9;&lt;/span&gt;&lt;span style=&quot;white-space: pre;&quot;&gt;&#x9;&lt;span style=&quot;white-space: pre;&quot;&gt;&#x9;&lt;/span&gt;ข&lt;/span&gt;นม&lt;/u&gt;&lt;br&gt;&lt;span style=&quot;white-space: pre;&quot;&gt;&#x9;&lt;/span&gt;- โค้ก กระป๋องละ 10 บาท&lt;span style=&quot;white-space: pre;&quot;&gt;&#x9;&lt;/span&gt;&lt;span style=&quot;white-space: pre;&quot;&gt;&#x9;&lt;/span&gt;&lt;span style=&quot;white-space: pre;&quot;&gt;&#x9;&lt;/span&gt;&lt;span style=&quot;white-space: pre;&quot;&gt;&#x9;&lt;/span&gt;- เมล็ดทานตะวัน 13 บาท&lt;br&gt;&lt;span style=&quot;white-space: pre;&quot;&gt;&#x9;&lt;/span&gt;- น้ำเขียว กระป๋องละ 12 บาท&lt;span style=&quot;white-space: pre;&quot;&gt;&#x9;&lt;/span&gt;&lt;span style=&quot;white-space: pre;&quot;&gt;&#x9;&lt;/span&gt;&lt;span style=&quot;white-space: pre;&quot;&gt;&#x9;&lt;/span&gt;- ถั่วแปบ 20 บาท&lt;br&gt;&lt;span style=&quot;white-space: pre;&quot;&gt;&#x9;&lt;/span&gt;- อเมริกาโน่ 30 บาท&lt;span style=&quot;white-space: pre;&quot;&gt;&#x9;&lt;/span&gt;&lt;span style=&quot;white-space: pre;&quot;&gt;&#x9;&lt;/span&gt;&lt;span style=&quot;white-space: pre;&quot;&gt;&#x9;&lt;/span&gt;&lt;span style=&quot;white-space: pre;&quot;&gt;&#x9;&lt;/span&gt;&lt;span style=&quot;white-space: pre;&quot;&gt;&#x9;&lt;/span&gt;- จิ้นส้มหมก 15 บาท&lt;br&gt;&lt;span style=&quot;white-space: pre;&quot;&gt;&#x9;&lt;/span&gt;- ลาเต้ หวานเจี๊ยบ 35 บาท&lt;span style=&quot;white-space: pre;&quot;&gt;&#x9;&lt;/span&gt;&lt;br&gt;&lt;br&gt;&lt;u&gt;สิ่งที่ระบบควรจะทำได้&lt;/u&gt;&lt;br&gt;&lt;span style=&quot;white-space: pre;&quot;&gt;&#x9;&lt;/span&gt;- ลูกค้าเลือกสินค้า, ระบบจะต้องรวมยอดขาย และรวมรายการสินค้าทั้งหมดที่ลูกค้าเลือก&lt;br&gt;&lt;span style=&quot;white-space: pre;&quot;&gt;&#x9;&lt;/span&gt;- สรุปยอดว่าเหลือเงินในตู้อีกเท่าไหร่ เหลือเหรียญอะไรบ้าง? ธนบัตรอะไรบ้าง? อย่างละเท่าไหร่?&lt;br&gt;&lt;br&gt;&lt;br&gt;&lt;/font&gt;" style="text;html=1;align=left;verticalAlign=middle;resizable=0;points=[];autosize=1;strokeColor=none;fillColor=none;fontSize=14;" vertex="1" parent="FBGtjrxFYeqwoGElC6IA-37">
          <mxGeometry x="25" y="30" width="580" height="240" as="geometry" />
        </mxCell>
        <mxCell id="FBGtjrxFYeqwoGElC6IA-53" value="ใช่" style="text;html=1;align=center;verticalAlign=middle;whiteSpace=wrap;rounded=0;" vertex="1" parent="1">
          <mxGeometry x="-432" y="990" width="60" height="30" as="geometry" />
        </mxCell>
        <mxCell id="FBGtjrxFYeqwoGElC6IA-58" value="" style="verticalLabelPosition=bottom;verticalAlign=top;html=1;shape=offPageConnector;rounded=0;size=0.5;" vertex="1" parent="1">
          <mxGeometry x="-593" y="1284" width="30" height="30" as="geometry" />
        </mxCell>
        <mxCell id="FBGtjrxFYeqwoGElC6IA-59" value="ก" style="text;html=1;align=center;verticalAlign=middle;resizable=0;points=[];autosize=1;strokeColor=none;fillColor=none;fontFamily=Sarabun;fontSource=https%3A%2F%2Ffonts.googleapis.com%2Fcss%3Ffamily%3DSarabun;" vertex="1" parent="1">
          <mxGeometry x="-593" y="1279" width="30" height="30" as="geometry" />
        </mxCell>
        <mxCell id="FBGtjrxFYeqwoGElC6IA-61" value="" style="edgeStyle=none;curved=1;rounded=0;orthogonalLoop=1;jettySize=auto;html=1;fontSize=12;startSize=8;endSize=8;" edge="1" parent="1" source="FBGtjrxFYeqwoGElC6IA-54" target="FBGtjrxFYeqwoGElC6IA-59">
          <mxGeometry relative="1" as="geometry" />
        </mxCell>
        <mxCell id="FBGtjrxFYeqwoGElC6IA-62" value="" style="verticalLabelPosition=bottom;verticalAlign=top;html=1;shape=offPageConnector;rounded=0;size=0.5;" vertex="1" parent="1">
          <mxGeometry x="-210" y="662" width="30" height="30" as="geometry" />
        </mxCell>
        <mxCell id="FBGtjrxFYeqwoGElC6IA-75" value="" style="edgeStyle=none;curved=1;rounded=0;orthogonalLoop=1;jettySize=auto;html=1;fontSize=12;startSize=8;endSize=8;" edge="1" parent="1" source="FBGtjrxFYeqwoGElC6IA-63" target="FBGtjrxFYeqwoGElC6IA-74">
          <mxGeometry relative="1" as="geometry" />
        </mxCell>
        <mxCell id="FBGtjrxFYeqwoGElC6IA-63" value="ก" style="text;html=1;align=center;verticalAlign=middle;resizable=0;points=[];autosize=1;strokeColor=none;fillColor=none;fontFamily=Sarabun;fontSource=https%3A%2F%2Ffonts.googleapis.com%2Fcss%3Ffamily%3DSarabun;" vertex="1" parent="1">
          <mxGeometry x="-210" y="657" width="30" height="30" as="geometry" />
        </mxCell>
      </root>
    </mxGraphModel>
  </diagram>
</mxfile>
